<svg xmlns="http://www.w3.org/2000/svg" width="24" height="24" viewBox="0 0 24 24"><defs><style>.a{fill:#333;}</style></defs><path class="a" d="M118.7,8.5a1.532,1.532,0,0,0-1.1-1.1,2.332,2.332,0,0,0-1.1-.2h-4.8a2.332,2.332,0,0,0-1.1.2,1.532,1.532,0,0,0-1.1,1.1,2.332,2.332,0,0,0-.2,1.1v4.8a2.332,2.332,0,0,0,.2,1.1,1.532,1.532,0,0,0,1.1,1.1,2.332,2.332,0,0,0,1.1.2h4.8a2.332,2.332,0,0,0,1.1-.2,1.532,1.532,0,0,0,1.1-1.1,2.332,2.332,0,0,0,.2-1.1V9.6A2.332,2.332,0,0,0,118.7,8.5ZM114,15.1a3.1,3.1,0,1,1,3.1-3.1A3.116,3.116,0,0,1,114,15.1Zm3.2-5.6a.7.7,0,1,1,.7-.7A.684.684,0,0,1,117.2,9.5Z" transform="translate(-102)"/><circle class="a" cx="1.829" cy="1.829" r="1.829" transform="translate(10.457 10.057)"/><path class="a" d="M114,0a12,12,0,1,0,12,12A12.035,12.035,0,0,0,114,0Zm6,14.5a3.339,3.339,0,0,1-.3,1.5,6.726,6.726,0,0,1-.7,1.1,2.589,2.589,0,0,1-1.1.7,12.993,12.993,0,0,1-1.5.3h-5a3.339,3.339,0,0,1-1.5-.3,6.727,6.727,0,0,1-1.1-.7,2.589,2.589,0,0,1-.7-1.1,12.994,12.994,0,0,1-.3-1.5v-5a3.339,3.339,0,0,1,.3-1.5,6.726,6.726,0,0,1,.7-1.1,2.589,2.589,0,0,1,1.1-.7,12.994,12.994,0,0,1,1.5-.3h5a3.339,3.339,0,0,1,1.5.3,6.726,6.726,0,0,1,1.1.7,2.589,2.589,0,0,1,.7,1.1,13,13,0,0,1,.3,1.5v5Z" transform="translate(-102)"/></svg>