<?xml version="1.0" encoding="UTF-8"?> <svg xmlns="http://www.w3.org/2000/svg" width="125" height="48.421" viewBox="0 0 125 48.421"><defs><style>.a{fill:#25294c;}.b{fill:#eb71a5;}.c{fill:#e30b7f;}.d{fill:#e84990;}</style></defs><g transform="translate(61.441 34.918)"><path class="a" d="M464.526,220h-1.421c-.451-.6-.92-1.254-1.421-1.906-.485-.652-.97-1.287-1.438-1.889H457.4v3.7c-.351.217-.7.1-1.1.1v-9.915c1.722,0,3.461-.117,5.15.033a2.815,2.815,0,0,1,2.692,2.692c.1,1.555-.686,2.541-2.642,3.194C462.52,217.307,463.473,218.594,464.526,220Zm-7.073-4.9c1.438-.067,2.826.234,4.2-.217A1.81,1.81,0,0,0,463,212.91a1.834,1.834,0,0,0-1.588-1.705,31.286,31.286,0,0,0-3.963-.1Z" transform="translate(-441.448 -209.839)"></path><path class="a" d="M530.7,214.133a5.084,5.084,0,1,1,5.033,5.2A4.956,4.956,0,0,1,530.7,214.133Zm1.154.033a4,4,0,0,0,3.946,4.1,4.1,4.1,0,1,0-3.946-4.1Z" transform="translate(-503.406 -208.972)"></path><path class="a" d="M372.474,213.7h4.013v3.979a5.269,5.269,0,1,1-7.457-7.44,5.277,5.277,0,0,1,7.156,0c-.234.268-.451.518-.686.769-2.558-1.522-4.548-1.4-5.919.3a4.57,4.57,0,0,0,.167,5.635c1.4,1.5,3.7,1.588,5.668.217v-2.475H372.49C372.474,214.349,372.474,214.065,372.474,213.7Z" transform="translate(-367.469 -208.837)"></path><path class="a" d="M704.054,216.355v3.377a1.718,1.718,0,0,1-1.154.1V209.9c1.522,0,2.993-.1,4.481.017a3.1,3.1,0,0,1,2.993,3.227c-.05,1.789-1.455,3.076-3.528,3.194C705.926,216.4,705.023,216.355,704.054,216.355Zm.017-1.02c1.271-.117,2.475.167,3.645-.251a2.009,2.009,0,0,0,1.471-2.09,1.961,1.961,0,0,0-1.588-1.906,18.978,18.978,0,0,0-3.511-.117C704.07,212.492,704.07,213.847,704.07,215.335Z" transform="translate(-646.816 -209.69)"></path><path class="a" d="M620.846,210.056a2.513,2.513,0,0,1,1.17.033v4.932a12.919,12.919,0,0,0,.033,1.388,2.772,2.772,0,0,0,2.358,2.625,3,3,0,0,0,3.177-1.287,4.1,4.1,0,0,0,.451-2.04v-5.618a2.406,2.406,0,0,1,1.154-.067c0,1.873-.017,3.729,0,5.584a6.123,6.123,0,0,1-.318,1.99,3.5,3.5,0,0,1-2.792,2.424c-3.143.568-5.15-1.053-5.217-4.23C620.812,213.885,620.846,211.979,620.846,210.056Z" transform="translate(-578.472 -209.795)"></path></g><g transform="translate(60.635 2.931)"><path class="a" d="M445.059,27.524h-1.087V23.11h-5.735v4.364a2.185,2.185,0,0,1-1.137,0V17.642c.318-.2.686-.067,1.07-.084v4.33h5.768v-4.33h1.087C445.059,20.886,445.059,24.163,445.059,27.524Z" transform="translate(-424.652 -17.531)"></path><path class="a" d="M520.954,26.978h6.019a1.969,1.969,0,0,1,.05.986H519.8V18.1h7.106v1h-5.969V22.43h5.25a1.484,1.484,0,0,1,.067,1.1h-5.317C520.954,24.671,520.954,25.758,520.954,26.978Z" transform="translate(-493.525 -18.005)"></path><path class="a" d="M366,19.137h-3.26a1.83,1.83,0,0,1-.033-1.037H370.4a1.968,1.968,0,0,1,.017,1.037h-3.277v8.795c-.385.217-.736.067-1.137.134Z" transform="translate(-362.65 -18.005)"></path></g><g transform="translate(60.66 19.178)"><path class="a" d="M525.9,120.673c1.037,1.388,1.99,2.658,2.993,4h-1.421c-.9-1.221-1.873-2.491-2.826-3.779h-2.809V124.6c-.4.2-.752.067-1.137.117v-9.982c1.672,0,3.327-.084,4.966.017a2.911,2.911,0,0,1,2.842,2.441,2.835,2.835,0,0,1-2.174,3.327A1.43,1.43,0,0,1,525.9,120.673Zm-4.046-4.815v3.963c1.388-.134,2.725.2,4.046-.217a1.892,1.892,0,0,0-.368-3.745C524.328,115.807,523.108,115.858,521.854,115.858Z" transform="translate(-494.299 -114.704)"></path><path class="a" d="M444.454,116.053v3.311h5.3a1.858,1.858,0,0,1,.05,1.087h-5.35v3.428h6.053v1.02H443.3V115h7.156a1.641,1.641,0,0,1-.017,1.02C448.483,116.053,446.477,116.053,444.454,116.053Z" transform="translate(-429.84 -114.95)"></path><path class="a" d="M367.883,124.765h-1.02c-1.354-3.16-2.709-6.32-4.063-9.514.334-.184.652-.334,1.037-.552,1.17,2.809,2.324,5.618,3.545,8.577,1.221-2.926,2.374-5.735,3.545-8.561.351.184.652.318,1.02.5C370.591,118.4,369.254,121.555,367.883,124.765Z" transform="translate(-362.8 -114.7)"></path><path class="a" d="M592.714,119.766c1.154-1.689,2.24-3.294,3.361-4.932.318.15.635.3,1,.468-1.3,1.889-2.558,3.729-3.846,5.568v3.812c-.334.2-.686.1-1.12.084,0-.97-.05-1.94.017-2.893a2.743,2.743,0,0,0-.585-1.856c-1.087-1.522-2.14-3.093-3.244-4.682.351-.184.669-.334,1.02-.535C590.457,116.422,591.56,118.044,592.714,119.766Z" transform="translate(-550.596 -114.783)"></path></g><rect class="a" width="0.719" height="48.421" transform="translate(49.391)"></rect><g transform="translate(0 4.046)"><path class="b" d="M36.032,32.828,18.007,41.254,0,32.878,18.074,24.2Z" transform="translate(0 -24.2)"></path><path class="c" d="M125.724,95.028,107.7,107.5V87.136L125.724,75.8Z" transform="translate(-89.693 -67.173)"></path><path class="d" d="M0,95.028,18.007,107.5V87.136L0,75.8Z" transform="translate(0 -67.173)"></path></g></svg> 