<?xml version="1.0" encoding="UTF-8"?> <svg xmlns="http://www.w3.org/2000/svg" width="79.834" height="70" viewBox="0 0 79.834 70"><g transform="translate(-1.8 -0.993)"><g transform="translate(24.338 0.993)"><path d="M293.906,4.109a4.654,4.654,0,0,0-2.328-2.677c-1.067-.525-2.327-.656-4.419.044l-23.73,7.91c-2.1.7-3.028,1.557-3.561,2.616a4.606,4.606,0,0,0-.254,3.535,4.655,4.655,0,0,0,2.328,2.677c1.068.525,2.327.656,4.419-.044l23.73-7.91c2.091-.7,3.027-1.557,3.561-2.616A4.606,4.606,0,0,0,293.906,4.109Z" transform="translate(-259.377 -0.993)"></path><path d="M293.906,171.509a4.654,4.654,0,0,0-2.328-2.677c-1.067-.525-2.327-.656-4.419.044l-23.73,7.91c-2.1.7-3.028,1.557-3.561,2.616a4.606,4.606,0,0,0-.254,3.535,4.654,4.654,0,0,0,2.328,2.677c1.068.525,2.327.656,4.419-.044l23.73-7.91c2.091-.7,3.027-1.557,3.561-2.616A4.606,4.606,0,0,0,293.906,171.509Z" transform="translate(-259.377 -153.746)"></path><path d="M293.906,339.009a4.654,4.654,0,0,0-2.328-2.677c-1.067-.525-2.327-.656-4.419.044l-23.73,7.91c-2.1.7-3.028,1.557-3.561,2.616a4.606,4.606,0,0,0-.254,3.535,4.654,4.654,0,0,0,2.328,2.677c1.068.525,2.327.656,4.419-.044l23.73-7.91c2.091-.7,3.027-1.558,3.561-2.616A4.606,4.606,0,0,0,293.906,339.009Z" transform="translate(-259.377 -306.59)"></path></g><g transform="translate(1.8 59.053)"><path d="M1.8,667.7h8.706v2.371H4.88v2.056h5.4v2.45H4.88v2.117H10.6v2.389H1.8Z" transform="translate(-1.8 -667.423)"></path><path d="M255.8,667.7h3.1v11.384h-3.1Z" transform="translate(-233.575 -667.423)"></path><path d="M318,665.243l-.21,2.432c-2.5-1.444-6.335-.989-6.4,2.809s3.946,4.349,6.492,3.054l.157,2.485c-4.5,1.4-9.87-.026-9.844-5.547.026-5.39,5.442-6.886,9.8-5.233Z" transform="translate(-281.389 -664.599)"></path><path d="M442.184,665.005l-.21,2.371c-1.558-.857-4.524-.884-4.524.464,0,2,5.276.56,5.276,4.83,0,4.209-5.022,4.252-8.286,3.281l.227-2.511c2.039.954,4.935,1.164,4.935-.49,0-1.811-5.3-.788-5.3-4.856.009-3.334,4.139-4.226,7.884-3.089Z" transform="translate(-396.456 -664.536)"></path><path d="M549.066,665.005l-.2,2.371c-1.557-.857-4.524-.884-4.524.464,0,2,5.276.56,5.276,4.83,0,4.209-5.031,4.252-8.286,3.281l.236-2.511c2.039.954,4.935,1.164,4.935-.49,0-1.811-5.3-.788-5.3-4.856-.009-3.334,4.121-4.226,7.866-3.089Z" transform="translate(-494.003 -664.536)"></path><path d="M794,667.7h3.92l3.745,7.35V667.7h2.853v11.384h-3.7L796.87,671.6v7.481H794Z" transform="translate(-724.683 -667.423)"></path><path d="M653.544,664.6c3.211,0,5.67,1.881,5.67,5.994,0,3.929-2.468,5.941-5.67,5.941s-5.644-1.969-5.644-5.941c0-4.112,2.432-5.994,5.644-5.994Zm-2.476,5.994c0,1.733.744,3.7,2.476,3.693s2.468-1.96,2.476-3.693c.009-1.566-.744-3.693-2.476-3.693s-2.476,1.96-2.476,3.693Z" transform="translate(-591.367 -664.594)"></path><path d="M129.966,672.5h1.7a1.281,1.281,0,1,0,.044-2.546h-1.741V672.5ZM127,667.7h5.574c1.514,0,3.622.665,3.622,3.027a2.566,2.566,0,0,1-1.986,2.756,1.747,1.747,0,0,1,1.024,1.146c.009.026,1.592,4.445,1.61,4.454h-3.281l-1.172-3.421a1.174,1.174,0,0,0-1.129-.875c-.481,0-1.242-.035-1.242,0v4.3H127V667.7Z" transform="translate(-116.045 -667.423)"></path></g></g></svg> 