<?xml version="1.0" encoding="UTF-8"?> <svg xmlns="http://www.w3.org/2000/svg" width="125" height="19.119" viewBox="0 0 125 19.119"><path d="M457.691,28.06h-4.8c-.025.275-.05.525-.1.8a1.981,1.981,0,0,1-.5,1.025,1.574,1.574,0,0,1-.95.525,1.91,1.91,0,0,1-1.65-.525,2.8,2.8,0,0,1-.8-1.325,6.26,6.26,0,0,1,.05-3.65,2.135,2.135,0,0,1,.925-1.2,1.884,1.884,0,0,1,2.15.1,2.168,2.168,0,0,1,.875,1.475h4.575a3.913,3.913,0,0,0-.475-2.175,4.812,4.812,0,0,0-1.15-1.5,5.642,5.642,0,0,0-2.625-1.425,8.846,8.846,0,0,0-4.2-.1,6.576,6.576,0,0,0-5.125,4.825,7.126,7.126,0,0,0-.15,3.25,5.839,5.839,0,0,0,.8,2.2,6.915,6.915,0,0,0,2,2.25,6.586,6.586,0,0,0,3.425,1.325,9.584,9.584,0,0,0,2.8-.125,6.613,6.613,0,0,0,3.575-1.975A4.8,4.8,0,0,0,457.691,28.06Z" transform="translate(-332.705 -14.909)"></path><rect width="4.975" height="3.525" transform="translate(105.26)"></rect><rect width="4.975" height="13.326" transform="translate(105.26 5.325)"></rect><path d="M371.1,19.68a5.339,5.339,0,0,0-3.925.3,8.235,8.235,0,0,0-2.075,1.35l-.1-1.4h-4.8V33.256h5.125V25.806a2.112,2.112,0,0,1,.325-1.15,2,2,0,0,1,2.525-.825,1.407,1.407,0,0,1,.85.95,2.417,2.417,0,0,1,.1.725v7.726h5.3v-8.6a6.393,6.393,0,0,0-.325-2.05A4.416,4.416,0,0,0,371.1,19.68Z" transform="translate(-270.142 -14.58)"></path><path d="M135.3,19.68a5.339,5.339,0,0,0-3.925.3,8.236,8.236,0,0,0-2.075,1.35l-.1-1.4h-4.8V33.256h5.125V25.806a2.112,2.112,0,0,1,.325-1.15,2,2,0,0,1,2.525-.825,1.408,1.408,0,0,1,.85.95,2.418,2.418,0,0,1,.1.725v7.726h5.3v-8.6a6.393,6.393,0,0,0-.325-2.05A4.322,4.322,0,0,0,135.3,19.68Z" transform="translate(-93.297 -14.58)"></path><path d="M254.676,26.4a5.741,5.741,0,0,0-2.2-1.2c-.2-.05-.35-.1-.525-.15a25.063,25.063,0,0,0-3.025-.65c-.3-.05-.525-.1-.825-.15a1.445,1.445,0,0,1-.35-.125.616.616,0,0,1-.3-.8c0-.025.025-.025.025-.05a1.125,1.125,0,0,1,.725-.575,2.584,2.584,0,0,1,1.625.05,1.2,1.2,0,0,1,.825,1.225h4.7a4.331,4.331,0,0,0-.3-1.6,2.831,2.831,0,0,0-.95-1.325,4.8,4.8,0,0,0-1.25-.725,6.59,6.59,0,0,0-1.375-.375,15.091,15.091,0,0,0-3.35-.2,12,12,0,0,0-1.9.275,5.452,5.452,0,0,0-2.325,1.125,3.831,3.831,0,0,0-1.275,1.775,2.591,2.591,0,0,0-.175.975,3.659,3.659,0,0,0,.275,1.625,3.461,3.461,0,0,0,2.05,2.05,7.409,7.409,0,0,0,1.45.425c1.025.2,1.9.375,2.925.55a8.482,8.482,0,0,1,1.075.275.81.81,0,0,1,.575.65.977.977,0,0,1-.275.925,1.485,1.485,0,0,1-.875.45,2.651,2.651,0,0,1-1.325-.125,1.635,1.635,0,0,1-.575-.325,1.666,1.666,0,0,1-.475-.7,2.259,2.259,0,0,1-.1-.7H242.3v.275a3.7,3.7,0,0,0,.225,1.275,4.206,4.206,0,0,0,1.075,1.625,5.049,5.049,0,0,0,2.225,1.25,11.421,11.421,0,0,0,5.275.325,7.169,7.169,0,0,0,2.375-.775,3.769,3.769,0,0,0,.925-.625,4.037,4.037,0,0,0,1.275-4.425A3.328,3.328,0,0,0,254.676,26.4Z" transform="translate(-181.719 -14.795)"></path><path d="M15.826,3.75A6.338,6.338,0,0,0,10.3.025C9.926,0,9.626,0,9.251,0H0V18.652H5.651V12.9H9.076a10.709,10.709,0,0,0,2.525-.275,6.059,6.059,0,0,0,4.8-5.35A6.361,6.361,0,0,0,15.826,3.75Zm-5,3.175a1.481,1.481,0,0,1-.325.825,1.872,1.872,0,0,1-1.425.775c-.425.025-.775.025-1.2.025H5.651V4.475H8.976a1.876,1.876,0,0,1,1.875,1.7A2.49,2.49,0,0,1,10.826,6.926Z"></path><path d="M310.724,21.85a6.979,6.979,0,0,0-3.875-1.925,10.119,10.119,0,0,0-1.5-.125,7.6,7.6,0,0,0-1.5.125,6.9,6.9,0,0,0-3.875,1.925,6.3,6.3,0,0,0-2,4.15,7.46,7.46,0,0,0,.25,2.875,6.622,6.622,0,0,0,2.45,3.625,6.49,6.49,0,0,0,2.625,1.225,9.536,9.536,0,0,0,2.05.225,9.366,9.366,0,0,0,2.05-.225,6.341,6.341,0,0,0,2.625-1.225,6.535,6.535,0,0,0,2.45-3.625,7.416,7.416,0,0,0,.25-2.875A6.3,6.3,0,0,0,310.724,21.85Zm-6.2,8.526a1.866,1.866,0,0,1-1-1,4.663,4.663,0,0,1-.375-1.275,7.4,7.4,0,0,1,.05-2.675,3.655,3.655,0,0,1,.525-1.3,1.941,1.941,0,0,1,2.7-.55,1.921,1.921,0,0,1,.55.55,3.317,3.317,0,0,1,.525,1.3,7.4,7.4,0,0,1,.05,2.675,4.418,4.418,0,0,1-.375,1.275A2.024,2.024,0,0,1,304.524,30.376Z" transform="translate(-223.441 -14.85)"></path><path d="M197.745,29.3c-.025-1.45-.05-2.675-.05-4.125a9.3,9.3,0,0,0-.275-2.2,3.421,3.421,0,0,0-1.725-2.25,5.491,5.491,0,0,0-1.65-.625,13.838,13.838,0,0,0-5.551-.1,7.4,7.4,0,0,0-1.5.425,3.976,3.976,0,0,0-2.375,2.6,3.227,3.227,0,0,0-.125,1.375.422.422,0,0,0,.075.25l4.475.1a2.23,2.23,0,0,1,.125-.8,1.367,1.367,0,0,1,.85-.85,2.62,2.62,0,0,1,1.8-.025,1.205,1.205,0,0,1,.8.825.831.831,0,0,1-.1.725.937.937,0,0,1-.525.4,2.2,2.2,0,0,1-.375.125c-.625.175-1.15.275-1.8.4-.5.075-.925.15-1.425.25a12.5,12.5,0,0,0-1.9.5,4.21,4.21,0,0,0-1.55.9,3.3,3.3,0,0,0-1.075,2.025,4.6,4.6,0,0,0,.05,1.55,3.721,3.721,0,0,0,2.65,2.825,6.345,6.345,0,0,0,4.4-.225,4.406,4.406,0,0,0,1.75-1.275c.1.325.2.6.3.925a1.046,1.046,0,0,0,.275.45h4.95a2.187,2.187,0,0,1-.35-1.05C197.82,31.324,197.77,30.4,197.745,29.3Zm-4.975-.425a2.192,2.192,0,0,1-.35.95,1.821,1.821,0,0,1-.875.75,3.1,3.1,0,0,1-1.075.275,2.9,2.9,0,0,1-.925-.075,1.447,1.447,0,0,1-.625-.375,1.329,1.329,0,0,1-.3-.55.9.9,0,0,1,.3-.875,1.635,1.635,0,0,1,.575-.325c.525-.2.975-.325,1.5-.475a10.742,10.742,0,0,0,1.775-.65A6.088,6.088,0,0,1,192.77,28.874Z" transform="translate(-137.865 -14.822)"></path><path d="M78.07,29.3c-.025-1.45-.05-2.675-.05-4.125a9.3,9.3,0,0,0-.275-2.2,3.421,3.421,0,0,0-1.725-2.25,5.491,5.491,0,0,0-1.65-.625A13.838,13.838,0,0,0,68.82,20a7.4,7.4,0,0,0-1.5.425,3.976,3.976,0,0,0-2.375,2.6,3.227,3.227,0,0,0-.125,1.375.422.422,0,0,0,.075.25l4.45.125a2.23,2.23,0,0,1,.125-.8,1.367,1.367,0,0,1,.85-.85,2.62,2.62,0,0,1,1.8-.025,1.205,1.205,0,0,1,.8.825.831.831,0,0,1-.1.725.937.937,0,0,1-.525.4,2.2,2.2,0,0,1-.375.125c-.625.175-1.15.275-1.8.4-.5.075-.925.15-1.425.25a12.5,12.5,0,0,0-1.9.5,4.21,4.21,0,0,0-1.55.9,3.3,3.3,0,0,0-1.075,2.025,4.6,4.6,0,0,0,.05,1.55,3.721,3.721,0,0,0,2.65,2.825,6.346,6.346,0,0,0,4.4-.225,4.406,4.406,0,0,0,1.75-1.275c.1.325.175.6.3.925a1.046,1.046,0,0,0,.275.45h4.95a2.188,2.188,0,0,1-.35-1.05C78.12,31.324,78.1,30.4,78.07,29.3Zm-5-.425a2.192,2.192,0,0,1-.35.95,1.821,1.821,0,0,1-.875.75,3.1,3.1,0,0,1-1.075.275,2.9,2.9,0,0,1-.925-.075,1.447,1.447,0,0,1-.625-.375,1.329,1.329,0,0,1-.3-.55.9.9,0,0,1,.3-.875,1.634,1.634,0,0,1,.575-.325c.525-.2.975-.325,1.5-.475a10.743,10.743,0,0,0,1.775-.65A4.076,4.076,0,0,1,73.07,28.874Z" transform="translate(-48.093 -14.822)"></path></svg> 