<?xml version="1.0" encoding="UTF-8"?> <svg xmlns="http://www.w3.org/2000/svg" width="125" height="15.742" viewBox="0 0 125 15.742"><defs><style>.a{fill:#c00;}</style></defs><path d="M323.468,16.834h3.061V15.478h-1.4V7.869h1.4V6.513h-3.061V8.044a4.63,4.63,0,0,0-3.739-1.837,5.146,5.146,0,0,0-5.094,5.444,5.146,5.146,0,0,0,5.094,5.444,4.63,4.63,0,0,0,3.739-1.837Zm-10.3-2.777h-1.662a3.816,3.816,0,0,1-6.953-1.837h8.855v-.743a4.912,4.912,0,0,0-5.182-5.269,5.189,5.189,0,0,0-5.4,5.444,5.177,5.177,0,0,0,5.4,5.444,5.048,5.048,0,0,0,4.941-3.039M291.436,8.131V3.3h1.487V1.9H288.2V3.3h1.487V15.434H288.2v1.4h4.723v-1.4h-1.487V9.487h7.478v5.947h-1.487v1.4h4.723v-1.4h-1.487V3.3h1.487V1.9h-4.723V3.3h1.487V8.131Zm51.229,7.347h-1.4V10.864c0-2.143,1.093-3.214,3.017-3.214,1.727,0,2.842,1.071,2.842,3.214v4.613h-1.4v1.356h4.46V15.478h-1.4V10.864c0-2.558-1.531-4.635-4.329-4.635a3.854,3.854,0,0,0-3.214,1.443V1.9h-3.061V3.256h1.4V15.478h-1.4v1.356h4.46V15.478Zm-26.325-3.8c0-2.34,1.487-4.045,3.608-4.045s3.586,1.727,3.586,4.045-1.443,4.045-3.586,4.045c-2.121,0-3.608-1.705-3.608-4.045m-8.112-4.067a3.4,3.4,0,0,1,3.5,3.28h-7.172a3.459,3.459,0,0,1,3.673-3.28m26.959,6.559v-6.3h2.1V6.513h-2.1V3.89h-1.662V6.513h-1.6V7.869h1.6v6.363c0,1.837.809,2.733,2.755,2.733a4.67,4.67,0,0,0,1.006-.131V15.478a4.177,4.177,0,0,1-.853.087c-.853,0-1.246-.306-1.246-1.4m-4.132,2.8a4.064,4.064,0,0,0,.94-.131V15.478a3.243,3.243,0,0,1-.743.087c-.722,0-1.049-.372-1.049-1.487V1.9h-3.061V3.256h1.4V14.144c-.022,1.858.722,2.821,2.514,2.821" transform="translate(-225.186 -1.485)"></path><path class="a" d="M53,10.67c.241,1.115.875,1.509,2.186,1.509,1.159,0,1.793-.415,1.793-1.071,0-.94-.853-1.006-2.624-1.465A14.669,14.669,0,0,1,50.332,8.2a3.932,3.932,0,0,1-1.705-3.433C48.627,1.88,50.9,0,54.858,0c3.848,0,6.1,1.684,6.363,4.7H56.695c-.153-.9-.765-1.312-1.924-1.312-1.006,0-1.509.328-1.509,1.006,0,.787.765.94,2.208,1.312a15.25,15.25,0,0,1,4.264,1.421,3.846,3.846,0,0,1,1.9,3.476c0,3.236-2.34,5.138-6.647,5.138-4,0-6.341-1.88-6.647-5.073ZM35.421,9.533c-.262,3.914-2.842,6.21-7.128,6.21-4.766,0-7.653-3.017-7.653-7.871C20.64,3,23.57,0,28.205,0c4.329,0,6.865,2.186,7.15,6.056H30.807a2.3,2.3,0,0,0-2.536-2.318c-1.88,0-2.8,1.377-2.8,4.132,0,2.711,1.006,4.111,2.952,4.111a2.408,2.408,0,0,0,2.514-2.471h4.482ZM34.415.415h4.876l2.514,9.642L44.494.415h4.7L44.167,15.327H39.4ZM9.446,15.743h.044L18.3,6.931a2.211,2.211,0,0,0,.634-1.6,2.211,2.211,0,0,0-.634-1.6L15.218.656a2.326,2.326,0,0,0-3.192,0L9.467,3.214,6.909.656a2.211,2.211,0,0,0-1.6-.634,2.211,2.211,0,0,0-1.6.634L.634,3.739A2.211,2.211,0,0,0,0,5.335a2.211,2.211,0,0,0,.634,1.6Z"></path></svg> 