<?xml version="1.0" encoding="UTF-8"?> <svg xmlns="http://www.w3.org/2000/svg" width="150" height="21.388" viewBox="0 0 150 21.388"><defs><style>.a{fill:#ed1c24;}</style></defs><g transform="translate(-1210.497 -4226.139)"><path class="a" d="M120.919,25.4a7.419,7.419,0,1,0,7.419,7.419A7.425,7.425,0,0,0,120.919,25.4Zm0,10.694a3.275,3.275,0,1,1,3.275-3.275A3.281,3.281,0,0,1,120.919,36.094Z" transform="translate(1126.035 4207.288)"></path><path class="a" d="M183.694,14.075h-2.021V9.7h-4.426v4.375H175.2v4.017h2.047V28.2h4.426V18.092h2.021Z" transform="translate(1080.12 4218.972)"></path><rect class="a" width="4.426" height="14.122" transform="translate(1265.861 4233.046)"></rect><path class="a" d="M217.782,0a2.482,2.482,0,1,0,2.482,2.482A2.484,2.484,0,0,0,217.782,0Z" transform="translate(1050.28 4226.19)"></path><path class="a" d="M452.987,29.57a2.631,2.631,0,0,1,2.635,2.635v7.675h4.426V31.591c0-3.761-2.175-6.191-5.6-6.191a4.725,4.725,0,0,0-4.119,2.584V25.733H445.9V39.881h4.426V32.205A2.67,2.67,0,0,1,452.987,29.57Z" transform="translate(878.677 4207.288)"></path><path class="a" d="M523.471,22.021l-5.449-7.061L523.087,7.9H517.92L513.852,13.6V1.4H509.4V22.021h4.452V16.188l4.452,5.833Z" transform="translate(831.423 4225.148)"></path><path class="a" d="M13.764,17.018a6.7,6.7,0,0,0,.461-2.61,5.175,5.175,0,0,0-1.254-3.582,10.4,10.4,0,0,0-4.81-2.558,8.577,8.577,0,0,1-1.254-.486,3.935,3.935,0,0,1-.947-.691A1.63,1.63,0,0,1,5.552,5.94a1.669,1.669,0,0,1,.921-1.458,4.329,4.329,0,0,1,3.505.026,10.142,10.142,0,0,1,1.433.665L13.3,1.412A10.677,10.677,0,0,0,10.592.184,12.059,12.059,0,0,0,7.573-.2,8.015,8.015,0,0,0,4.759.261,6.244,6.244,0,0,0,2.61,1.668,6.461,6.461,0,0,0,1.177,3.817a7.074,7.074,0,0,0-.486,2.61,5.53,5.53,0,0,0,1.663,3.735,9.247,9.247,0,0,0,3.352,1.868c.588.23,1.228.409,1.663.588a6.548,6.548,0,0,1,1.2.614,1.858,1.858,0,0,1,.64.716,1.482,1.482,0,0,1,.128.9,1.929,1.929,0,0,1-.64,1.228,3.011,3.011,0,0,1-2.047.563,6.387,6.387,0,0,1-2.482-.588,22.681,22.681,0,0,1-2.021-1.075L0,18.886a9.963,9.963,0,0,0,6.294,2.277,10.339,10.339,0,0,0,3.352-.537,8.04,8.04,0,0,0,2.533-1.407A6.276,6.276,0,0,0,13.764,17.018Z" transform="translate(1210.497 4226.339)"></path><path class="a" d="M569.382,62.7a2.482,2.482,0,1,0,2.482,2.482A2.484,2.484,0,0,0,569.382,62.7Zm0,4.452a1.97,1.97,0,1,1,1.97-1.97A1.971,1.971,0,0,1,569.382,67.152Z" transform="translate(788.634 4179.531)"></path><path class="a" d="M574.07,68.865h-.384v.947H573.2V67.1h1.023a.886.886,0,0,1,.384,1.689l.563,1.023h-.589Zm-.384-.461h.563a.41.41,0,0,0,0-.819h-.563Z" transform="translate(783.946 4176.257)"></path><path class="a" d="M71.683,34.866a3.275,3.275,0,1,1-2.558-5.322,3.331,3.331,0,0,1,2.558,1.228l2.942-2.942A7.441,7.441,0,0,0,69.15,25.4a7.419,7.419,0,1,0,5.475,12.408Z" transform="translate(1164.731 4207.288)"></path><path class="a" d="M256.4,39.881V25.758H252.08v1.484l-.409-.358a5.393,5.393,0,0,0-3.735-1.484,7.43,7.43,0,0,0,0,14.839,5.439,5.439,0,0,0,3.735-1.484l.409-.358v1.484Zm-7.752-3.735a3.326,3.326,0,1,1,3.326-3.326A3.336,3.336,0,0,1,248.652,36.145Z" transform="translate(1031.23 4207.288)"></path><path class="a" d="M392.5,39.881V25.758H388.18v1.484l-.409-.358a5.393,5.393,0,0,0-3.735-1.484,7.43,7.43,0,0,0,0,14.839,5.439,5.439,0,0,0,3.735-1.484l.409-.358v1.484Zm-7.752-3.735a3.326,3.326,0,1,1,3.326-3.326A3.336,3.336,0,0,1,384.752,36.145Z" transform="translate(929.949 4207.288)"></path><path class="a" d="M314.824,22.021V20.537l.409.358a5.393,5.393,0,0,0,3.735,1.484A7.337,7.337,0,0,0,326,14.96a7.337,7.337,0,0,0-7.036-7.419,5.439,5.439,0,0,0-3.735,1.484l-.409.358V1.4H310.5V22.021Zm.077-7.061a3.326,3.326,0,1,1,3.326,3.326A3.336,3.336,0,0,1,314.9,14.96Z" transform="translate(979.436 4225.148)"></path></g></svg> 