<?xml version="1.0" encoding="UTF-8"?> <svg xmlns="http://www.w3.org/2000/svg" width="125" height="19.143" viewBox="0 0 125 19.143"><defs><style>.a{fill:#1428a0;}</style></defs><path class="a" d="M4.714,5.143a2.013,2.013,0,0,1,0-.929A1.489,1.489,0,0,1,6.357,3,1.5,1.5,0,0,1,8,4.643V5.714h4.429V4.5C12.5.643,9,0,6.429,0,3.286,0,.714,1.071.214,4a6.921,6.921,0,0,0,0,2.429c.786,3.643,7.143,4.714,8.071,7a1.969,1.969,0,0,1,0,1.286,1.573,1.573,0,0,1-1.714,1.214,1.581,1.581,0,0,1-1.786-1.643V12.571H0v1.357c0,4,3.143,5.214,6.5,5.214,3.214,0,5.857-1.071,6.286-4.071a9.1,9.1,0,0,0,0-2.929C12,8.357,5.286,7.286,4.714,5.143Zm58.143.071a2.013,2.013,0,0,1,0-.929A1.489,1.489,0,0,1,64.5,3.071a1.537,1.537,0,0,1,1.643,1.643V5.786h4.429V4.571c0-3.857-3.429-4.429-5.929-4.429-3.143,0-5.714,1.071-6.214,3.929A5.288,5.288,0,0,0,58.5,6.429c.786,3.643,7.071,4.643,8,6.929a1.97,1.97,0,0,1,0,1.286,1.573,1.573,0,0,1-1.714,1.214c-1.214,0-1.929-.643-1.929-1.571V12.571H58.143v1.357c0,3.929,3.071,5.143,6.429,5.143,3.214,0,5.857-1.071,6.214-4.071a9.314,9.314,0,0,0,0-2.929C70.071,8.429,63.357,7.286,62.857,5.214Zm40.571,9.714L99.214.571H92.571V18.214h4.357L96.643,3.357l4.5,14.857H107.5V.571h-4.429ZM19.143.571,15.857,18.429h4.857l2.5-16.571,2.429,16.571h4.786L27.143.571h-8Zm27,0L43.857,14.5,41.571.571H34.286l-.357,17.857h4.5l.143-16.571,3.071,16.571h4.5L49.214,1.857l.071,16.571h4.5L53.357.571H46.143Zm41.5,0h-4.5V13.786a2.43,2.43,0,0,1-.071.714,1.786,1.786,0,0,1-3.429,0,2.2,2.2,0,0,1-.071-.714V.571h-4.5V13.357a6.158,6.158,0,0,0,.071,1.214C75.429,17.929,78.071,19,81.357,19s5.929-1.071,6.214-4.429c0-.143.071-.857.071-1.214V.571Zm31,7.857V11H120.5v2.571a2.43,2.43,0,0,1-.071.714c-.071.5-.5,1.286-1.857,1.286a1.6,1.6,0,0,1-1.786-1.286c0-.214-.071-.429-.071-.714V5.429a3.477,3.477,0,0,1,.071-.857,1.883,1.883,0,0,1,3.571,0,3.664,3.664,0,0,1,.071.714v1h4.5V4.5c-.357-3.357-3.071-4.429-6.286-4.429-3.143,0-5.857,1.071-6.286,4.429,0,.286-.071.857-.071,1.214v7.5a7.4,7.4,0,0,0,.071,1.143c.286,3.286,3.143,4.429,6.286,4.429,3.214,0,6-1.143,6.286-4.429A7.892,7.892,0,0,0,125,13.214V8.429h-6.357Z"></path></svg> 