<?xml version="1.0" encoding="UTF-8"?> <svg xmlns="http://www.w3.org/2000/svg" xmlns:xlink="http://www.w3.org/1999/xlink" version="1.1" id="Layer_1" x="0px" y="0px" viewBox="0 0 500 499.9" style="enable-background:new 0 0 500 499.9;" xml:space="preserve"> <style type="text/css"> .st0{fill:#0071CE;} </style> <g id="PANETONE_285"> <g> <g> <g> <path class="st0" d="M430.5,0H69.5C31.1,0,0,31.1,0,69.5v360.8c0,38.4,31.1,69.5,69.5,69.5h360.9c38.4,0,69.5-31.1,69.5-69.5 V69.5C500,31.1,468.9,0,430.5,0z M468,430.4c0,20.7-16.8,37.5-37.5,37.5H69.5c-20.7,0-37.5-16.8-37.5-37.5V69.5 C32,48.8,48.8,32,69.5,32h360.9c20.7,0,37.5,16.8,37.5,37.5V430.4z"></path> </g> </g> <g> <path class="st0" d="M200.5,129.5h-68.8c-21.4,0-39,17.5-39,39v95.3c0,21.4,17.5,39,39,39H164v7.3c-0.4,17.6-10.5,27.9-34.9,28.4 h-15.3v32h15.3c45.2,0,70.6-21.4,71.4-60.6l0-150.4V129.5z M164.1,271.1h-21.1c-7.6,0-13.8-6.2-13.8-13.8v-82.4 c0-7.6,6.2-13.8,13.8-13.8h21.1L164.1,271.1z"></path> <path class="st0" d="M368.3,129.5H228.1v173.3h36.4V161.1h35v141.7h36.4V161.1h21.2c7.6,0,13.8,6.2,13.8,13.8v127.9h36.4V168.5 C407.3,147,389.7,129.5,368.3,129.5z"></path> </g> </g> <rect x="228.1" y="338.4" class="st0" width="179.2" height="32"></rect> </g> </svg> 