<svg xmlns="http://www.w3.org/2000/svg" width="24" height="24" viewBox="0 0 24 24"><defs><style>.a{fill:#333;}</style></defs><path class="a" d="M46,0A12,12,0,1,0,58,12,12.035,12.035,0,0,0,46,0Zm4.8,9.6v.3A7.026,7.026,0,0,1,40,15.8h.6a4.887,4.887,0,0,0,3.1-1.1A2.37,2.37,0,0,1,41.4,13h.5a1.268,1.268,0,0,0,.6-.1,2.469,2.469,0,0,1-2-2.4h0a2.016,2.016,0,0,0,1.1.3,2.305,2.305,0,0,1-1.1-2,2.133,2.133,0,0,1,.3-1.2,6.9,6.9,0,0,0,5.1,2.6c0-.2-.1-.4-.1-.6a2.476,2.476,0,0,1,2.5-2.5,2.5,2.5,0,0,1,1.8.8,4.418,4.418,0,0,0,1.6-.6,2.586,2.586,0,0,1-1.1,1.4A5.732,5.732,0,0,0,52,8.3,4.894,4.894,0,0,1,50.8,9.6Z" transform="translate(-34)"/></svg>