<?xml version="1.0" encoding="UTF-8"?> <svg xmlns="http://www.w3.org/2000/svg" width="62.502" height="50" viewBox="0 0 62.502 50"><defs><style>.a{fill:#ffc425;}</style></defs><g transform="translate(0 0)"><path class="a" d="M41.073,3.572C46,3.572,50,24.359,50,50h7.144c0-27.615-7.2-50-16.072-50-5.048,0-9.553,6.727-12.5,17.249C25.627,6.727,21.122,0,16.072,0,7.2,0,0,22.385,0,50H7.144c0-25.641,4-46.428,8.929-46.428S25,22.759,25,46.426h7.142C32.144,22.759,36.143,3.572,41.073,3.572Z" transform="translate(0 0)"></path></g><g transform="translate(58.929 46.428)"><path d="M335.882,263.22A1.785,1.785,0,1,1,334.09,265,1.772,1.772,0,0,1,335.882,263.22Zm0,3.309A1.525,1.525,0,1,0,334.415,265,1.471,1.471,0,0,0,335.882,266.529Zm-.693-2.568h.8c.492,0,.725.2.725.6a.533.533,0,0,1-.543.568l.593.922h-.348l-.564-.9h-.34v.9h-.325v-2.087Zm.323.926h.337c.284,0,.545-.014.545-.344,0-.277-.238-.319-.457-.319h-.427v.663Z" transform="translate(-334.09 -263.22)"></path></g></svg> 