<?xml version="1.0" encoding="UTF-8"?> <svg xmlns="http://www.w3.org/2000/svg" width="150" height="26.194" viewBox="0 0 150 26.194"><defs><style>.a{fill:#da291c;}</style></defs><path class="a" d="M23.064,4.6a13.015,13.015,0,0,1,3.13,8.485c0,5.931-3.567,9.507-7.39,9.507A8.32,8.32,0,0,1,14,21.091c6.105-2.585,9.692-7.924,9.692-12.473A12.987,12.987,0,0,0,23.064,4.6M4.594,3.13A12.861,12.861,0,0,1,8.613,2.5c4.548,0,9.888,3.592,12.473,9.687a8.32,8.32,0,0,0,1.5-4.805C22.591,3.567,19.01,0,13.079,0A13.037,13.037,0,0,0,4.594,3.13M3.13,21.6A12.861,12.861,0,0,1,2.5,17.581c0-4.548,3.592-9.888,9.692-12.473a8.32,8.32,0,0,0-4.805-1.5C3.567,3.608,0,7.184,0,13.115A13.026,13.026,0,0,0,3.13,21.6M21.6,23.064a12.861,12.861,0,0,1-4.019.627C13.028,23.691,7.693,20.1,5.108,14a8.3,8.3,0,0,0-1.5,4.8c0,3.823,3.577,7.39,9.507,7.39a13.026,13.026,0,0,0,8.485-3.13"></path><g transform="translate(145.673 20.767)"><path class="a" d="M284.467,42.6h-.3V40.677h-.7V40.41h1.716v.267h-.709Z" transform="translate(-283.46 -40.41)"></path><path class="a" d="M288.611,42.09h.01l.642-1.68h.478V42.6h-.3V40.77h-.01L288.7,42.6h-.2l-.725-1.83h-.005V42.6h-.3V40.41h.478Z" transform="translate(-285.414 -40.41)"></path></g><g transform="translate(35.316 2.991)"><path class="a" d="M101.01,15.944c0-5.987,3.479-10.124,9.2-10.124s9.2,4.163,9.2,10.124c0,6.049-3.567,10.088-9.2,10.088-5.694,0-9.2-4.044-9.2-10.088m14.646,0c0-4.373-1.778-7.1-5.442-7.1-3.582,0-5.447,2.606-5.447,7.1,0,4.461,1.865,7.066,5.447,7.066,3.546,0,5.442-2.606,5.442-7.066" transform="translate(-84.416 -5.82)"></path><path class="a" d="M186.54,6.3V26.019H198.7V23.084h-8.577V17.431h7.56V14.5h-7.56V9.234h7.59l.956-2.934H186.54" transform="translate(-125.991 -6.053)"></path><path class="a" d="M154.352,15.142l-.93,2.847h3.006V22.4a6.2,6.2,0,0,1-2.862.6c-4.168,0-6.234-2.785-6.234-7.035,0-4.194,2.1-7.128,6.362-7.128a8.546,8.546,0,0,1,4.466,1.331l.987-3.022a12.666,12.666,0,0,0-5.715-1.331c-6.023,0-9.852,4.4-9.852,10.391,0,5.658,3.392,9.821,9.728,9.821a14.487,14.487,0,0,0,6.676-1.588v-9.3h-5.632Z" transform="translate(-105.109 -5.82)"></path><path class="a" d="M68.725,6.3h5.941c5.442,0,7.138,3.376,7.138,6.013a5.653,5.653,0,0,1-3.6,5.406v.128c.385.113,1.213.5,2.282,2.421l3.258,5.751H79.707l-2.816-4.98c-1.136-2.035-1.593-2.7-3.407-2.7H72.225v7.678h-3.5V6.3m5.853,9.106c3.017,0,3.638-1.886,3.638-3.114,0-1.048-.54-3.053-3.638-3.053H72.23v6.167Z" transform="translate(-68.72 -6.053)"></path><path class="a" d="M220.06,6.3H226c5.442,0,7.138,3.376,7.138,6.013a5.653,5.653,0,0,1-3.6,5.406v.128c.385.113,1.213.5,2.282,2.421l3.258,5.751h-4.034l-2.816-4.98c-1.136-2.035-1.593-2.7-3.407-2.7H223.56v7.678h-3.5V6.3m5.848,9.106c3.017,0,3.638-1.886,3.638-3.114,0-1.048-.54-3.053-3.638-3.053h-2.343v6.167Z" transform="translate(-142.285 -6.053)"></path><path class="a" d="M257.508,11.062c0-1.557,1.48-2.225,3.13-2.225a11.621,11.621,0,0,1,4.271.863V6.411a15.014,15.014,0,0,0-4.6-.591c-4.307,0-6.624,2.544-6.624,5.442s2.349,4.384,4.3,5.427l1.413.75c1.619.863,2.811,1.542,2.811,3.037,0,1.706-1.645,2.513-3.289,2.513a9.518,9.518,0,0,1-4.805-1.187l-.951,2.914a12.65,12.65,0,0,0,5.817,1.31c4.039,0,7.056-2.364,7.056-5.864,0-2.482-1.691-4.06-4.471-5.54-.488-.257-.853-.452-1.31-.7C258.705,13.1,257.508,12.455,257.508,11.062Z" transform="translate(-158.374 -5.82)"></path></g></svg> 