<?xml version="1.0" encoding="UTF-8"?> <svg xmlns="http://www.w3.org/2000/svg" width="150" height="30.123" viewBox="0 0 150 30.123"><defs><style>.a{fill:#181818;}</style></defs><g transform="translate(-3 -1.985)"><g transform="translate(3 10.9)"><path class="a" d="M3,94.7H15.148V98H7.3v2.871h7.53v3.434H7.3v2.962h7.982V110.6H3Z" transform="translate(-3 -94.307)"></path><path class="a" d="M312.3,94.7h4.327v15.913H312.3Z" transform="translate(-281.247 -94.307)"></path><path class="a" d="M389.9,91.765l-.291,3.4c-3.494-2.028-8.855-1.375-8.946,3.926s5.522,6.074,9.076,4.277l.221,3.474c-6.285,1.958-13.795-.03-13.765-7.751.03-7.56,7.6-9.648,13.7-7.329Z" transform="translate(-338.73 -90.86)"></path><path class="a" d="M540.914,91.439l-.291,3.313c-2.179-1.2-6.325-1.235-6.325.653,0,2.791,7.379.773,7.379,6.757,0,5.883-7.028,5.944-11.586,4.588l.321-3.5c2.851,1.335,6.9,1.626,6.9-.683,0-2.53-7.409-1.1-7.409-6.8,0-4.669,5.783-5.913,11.014-4.327Z" transform="translate(-477 -90.785)"></path><path class="a" d="M670.914,91.439l-.291,3.313c-2.179-1.2-6.325-1.235-6.325.653,0,2.791,7.379.773,7.379,6.757,0,5.883-7.028,5.944-11.586,4.588l.321-3.5c2.851,1.335,6.9,1.626,6.9-.683,0-2.53-7.409-1.1-7.409-6.8.01-4.669,5.783-5.913,11.014-4.327Z" transform="translate(-593.948 -90.785)"></path><path class="a" d="M968.1,94.7h5.482l5.221,10.261V94.7h3.986v15.913h-5.171l-5.5-10.462v10.462H968.1Z" transform="translate(-871.205 -94.307)"></path><path class="a" d="M797.9,90.9c4.5,0,7.922,2.63,7.922,8.373,0,5.492-3.444,8.313-7.922,8.313s-7.9-2.761-7.9-8.313c.01-5.743,3.414-8.373,7.9-8.373Zm-3.464,8.373c0,2.43,1.044,5.171,3.464,5.171s3.444-2.741,3.464-5.171c.02-2.189-1.034-5.161-3.464-5.171s-3.464,2.741-3.464,5.171Z" transform="translate(-710.986 -90.888)"></path><path class="a" d="M159.446,101.407h2.369a1.793,1.793,0,1,0,.06-3.564h-2.44l.01,3.564ZM155.3,94.7h7.8c2.118,0,5.07.934,5.07,4.237a3.579,3.579,0,0,1-2.781,3.845,2.451,2.451,0,0,1,1.436,1.606c.02.04,2.229,6.215,2.259,6.225h-4.6l-1.637-4.779a1.637,1.637,0,0,0-1.576-1.225c-.673,0-1.737-.04-1.737,0v6H155.3V94.7Z" transform="translate(-140.009 -94.307)"></path></g><g transform="translate(130.714 1.985)"><path class="a" d="M1297.193,3.984a2.936,2.936,0,0,0-1.486-1.717,3.449,3.449,0,0,0-2.831.03l-15.22,5.07a3.46,3.46,0,0,0-2.279,1.677,2.974,2.974,0,0,0,1.325,3.986,3.449,3.449,0,0,0,2.831-.03l15.221-5.07a3.459,3.459,0,0,0,2.279-1.677A2.95,2.95,0,0,0,1297.193,3.984Z" transform="translate(-1275.061 -1.985)"></path><path class="a" d="M1297.193,97.584a2.936,2.936,0,0,0-1.486-1.717,3.449,3.449,0,0,0-2.831.03l-15.22,5.07a3.46,3.46,0,0,0-2.279,1.677,2.974,2.974,0,0,0,1.325,3.986,3.449,3.449,0,0,0,2.831-.03l15.221-5.07a3.459,3.459,0,0,0,2.279-1.677A2.95,2.95,0,0,0,1297.193,97.584Z" transform="translate(-1275.061 -86.187)"></path><path class="a" d="M1297.193,191.184a2.936,2.936,0,0,0-1.486-1.717,3.449,3.449,0,0,0-2.831.03l-15.22,5.07a3.46,3.46,0,0,0-2.279,1.677,2.974,2.974,0,0,0,1.325,3.986,3.448,3.448,0,0,0,2.831-.03l15.221-5.07a3.491,3.491,0,0,0,2.279-1.677A2.95,2.95,0,0,0,1297.193,191.184Z" transform="translate(-1275.061 -170.39)"></path></g></g></svg> 