<svg xmlns="http://www.w3.org/2000/svg" width="24" height="24" viewBox="0 0 24 24"><defs><style>.a{fill:#333;}</style></defs><path class="a" d="M146.8,13.8l3.1-1.8-3.1-1.8Z" transform="translate(-136)"/><path class="a" d="M148,0a12,12,0,1,0,12,12A12.035,12.035,0,0,0,148,0Zm5.8,14.9a1.526,1.526,0,0,1-1.1,1.1,29.939,29.939,0,0,1-4.7.3,29.939,29.939,0,0,1-4.7-.3,1.721,1.721,0,0,1-1.1-1.1A19.365,19.365,0,0,1,142,12a19.365,19.365,0,0,1,.2-2.9A1.526,1.526,0,0,1,143.3,8a36.967,36.967,0,0,1,9.4,0,1.721,1.721,0,0,1,1.1,1.1A19.366,19.366,0,0,1,154,12,19.366,19.366,0,0,1,153.8,14.9Z" transform="translate(-136)"/></svg>